<svg xmlns="http://www.w3.org/2000/svg" width="279.046" height="279.013" fill="none" overflow="visible"><g><path d="M 0 0 L 279.046 0 L 279.046 279.013 L 0 279.013 Z" fill="transparent"></path><path d="M 229.634 0 L 49.412 0 C 22.124 0 0 22.686 0 50.673 L 0 228.34 C 0 256.327 22.124 279.013 49.412 279.013 L 229.634 279.013 C 256.922 279.013 279.046 256.327 279.046 228.34 L 279.046 50.673 C 279.046 22.686 256.922 0 229.634 0 Z" fill="rgb(241, 243, 247)"></path><path d="M 85.317 169.666 L 120.724 149.813 L 121.317 148.083 L 120.724 147.126 L 118.993 147.126 L 113.068 146.762 L 92.836 146.216 L 75.291 145.487 L 58.293 144.577 L 54.01 143.665 L 50 138.383 L 50.41 135.742 L 54.01 133.33 L 59.16 133.785 L 70.552 134.558 L 87.64 135.742 L 100.036 136.471 L 118.4 138.383 L 121.317 138.383 L 121.726 137.199 L 120.724 136.471 L 119.95 135.742 L 102.268 123.767 L 83.129 111.108 L 73.104 103.822 L 67.681 100.133 L 64.947 96.673 L 63.762 89.115 L 68.684 83.696 L 75.291 84.152 L 76.977 84.607 L 83.676 89.752 L 97.985 100.818 L 116.668 114.568 L 119.403 116.845 L 120.496 116.07 L 120.633 115.524 L 119.403 113.475 L 109.24 95.125 L 98.395 76.455 L 93.564 68.714 L 92.289 64.07 C 91.833 62.157 91.514 60.563 91.514 58.605 L 97.119 51.001 L 100.217 50 L 107.691 51.002 L 110.836 53.734 L 115.483 64.343 L 123.003 81.055 L 134.668 103.777 L 138.086 110.516 L 139.909 116.755 L 140.593 118.667 L 141.778 118.667 L 141.778 117.574 L 142.734 104.779 L 144.511 89.069 L 146.243 68.851 L 146.836 63.16 L 149.661 56.33 L 155.266 52.641 L 159.64 54.735 L 163.24 59.881 L 162.739 63.205 L 160.597 77.093 L 156.405 98.86 L 153.671 113.431 L 155.266 113.431 L 157.089 111.609 L 164.471 101.819 L 176.866 86.337 L 182.334 80.19 L 188.714 73.405 L 192.815 70.172 L 200.562 70.172 L 206.258 78.642 L 203.707 87.384 L 195.732 97.493 L 189.124 106.054 L 179.646 118.803 L 173.721 129.004 L 174.268 129.823 L 175.681 129.687 L 197.099 125.133 L 208.674 123.038 L 222.481 120.67 L 228.725 123.585 L 229.407 126.545 L 226.946 132.601 L 212.182 136.243 L 194.866 139.704 L 169.074 145.806 L 168.754 146.034 L 169.119 146.489 L 180.739 147.582 L 185.707 147.855 L 197.874 147.855 L 220.521 149.54 L 226.446 153.456 L 230 158.237 L 229.407 161.879 L 220.293 166.524 L 207.99 163.61 L 179.281 156.78 L 169.438 154.321 L 168.071 154.321 L 168.071 155.141 L 176.274 163.155 L 191.311 176.725 L 210.132 194.21 L 211.088 198.536 L 208.674 201.95 L 206.121 201.586 L 189.579 189.155 L 183.2 183.554 L 168.754 171.397 L 167.798 171.397 L 167.798 172.671 L 171.124 177.544 L 188.714 203.954 L 189.625 212.059 L 188.35 214.701 L 183.793 216.295 L 178.779 215.383 L 168.481 200.949 L 157.864 184.693 L 149.296 170.122 L 148.248 170.714 L 143.19 225.128 L 140.821 227.906 L 135.352 230 L 130.795 226.54 L 128.379 220.939 L 130.795 209.874 L 133.711 195.439 L 136.081 183.964 L 138.222 169.712 L 139.499 164.976 L 139.407 164.657 L 138.36 164.794 L 127.605 179.548 L 111.246 201.632 L 98.304 215.475 L 95.205 216.704 L 89.828 213.926 L 90.329 208.963 L 93.336 204.546 L 111.245 181.779 L 122.045 167.662 L 129.018 159.512 L 128.972 158.328 L 128.562 158.328 L 80.987 189.201 L 72.511 190.294 L 68.865 186.879 L 69.32 181.278 L 71.052 179.456 L 85.361 169.621 L 85.316 169.666 Z" fill="rgb(217,119,87)"></path></g></svg>